<?xml version="1.0" encoding="UTF-8" standalone="no"?>
<!-- Created with Inkscape (http://www.inkscape.org/) -->

<svg
   xmlns:dc="http://purl.org/dc/elements/1.1/"
   xmlns:cc="http://creativecommons.org/ns#"
   xmlns:rdf="http://www.w3.org/1999/02/22-rdf-syntax-ns#"
   xmlns:svg="http://www.w3.org/2000/svg"
   xmlns="http://www.w3.org/2000/svg"
   xmlns:sodipodi="http://sodipodi.sourceforge.net/DTD/sodipodi-0.dtd"
   xmlns:inkscape="http://www.inkscape.org/namespaces/inkscape"
   width="744.09448819"
   height="1052.3622047"
   id="svg2"
   version="1.1"
   inkscape:version="0.48.5 r10040"
   sodipodi:docname="GUMB_zacni.svg">
  <defs
     id="defs4" />
  <sodipodi:namedview
     id="base"
     pagecolor="#ffffff"
     bordercolor="#666666"
     borderopacity="1.0"
     inkscape:pageopacity="0.0"
     inkscape:pageshadow="2"
     inkscape:zoom="0.49497475"
     inkscape:cx="552.2385"
     inkscape:cy="689.94765"
     inkscape:document-units="px"
     inkscape:current-layer="layer1"
     showgrid="false"
     inkscape:window-width="1366"
     inkscape:window-height="706"
     inkscape:window-x="-8"
     inkscape:window-y="-8"
     inkscape:window-maximized="1" />
  <metadata
     id="metadata7">
    <rdf:RDF>
      <cc:Work
         rdf:about="">
        <dc:format>image/svg+xml</dc:format>
        <dc:type
           rdf:resource="http://purl.org/dc/dcmitype/StillImage" />
        <dc:title />
      </cc:Work>
    </rdf:RDF>
  </metadata>
  <g
     inkscape:label="Layer 1"
     inkscape:groupmode="layer"
     id="layer1">
    <path
       style="fill:#483737;fill-opacity:1;fill-rule:nonzero;stroke:none"
       d="M 83.59375 280.9375 C 59.437975 280.9375 40 300.37548 40 324.53125 L 40 460.1875 C 40 484.34327 59.437975 503.78125 83.59375 503.78125 L 670.6875 503.78125 C 694.84327 503.78125 714.28125 484.34327 714.28125 460.1875 L 714.28125 324.53125 C 714.28125 300.37548 694.84327 280.9375 670.6875 280.9375 L 83.59375 280.9375 z M 295.8125 368.0625 L 302.28125 371.1875 C 302.62652 371.41104 302.92445 371.51069 303.15625 371.5 C 303.388 371.4894 303.69167 371.38975 304.09375 371.1875 L 310.625 368.0625 C 310.82481 368.10393 310.98611 368.21878 311.09375 368.4375 C 311.20133 368.65631 311.24879 368.885 311.25 369.125 L 304.3125 375.28125 C 303.91752 375.62185 303.53699 375.78129 303.15625 375.78125 C 302.77546 375.78129 302.39493 375.62185 302 375.28125 L 294.96875 369.125 C 294.97583 368.88145 295.05555 368.66695 295.21875 368.4375 C 295.38192 368.20814 295.57835 368.0791 295.8125 368.0625 z M 210.65625 376.71875 C 210.8419 376.71879 211.00607 376.75865 211.15625 376.84375 C 211.17753 377.4989 211.56751 377.90408 212.3125 378.0625 C 213.05747 378.22099 214.5463 378.3073 216.78125 378.28125 L 231.75 378.28125 C 233.77088 378.28129 235.29196 378.24717 236.3125 378.21875 C 237.33297 378.19041 237.9915 378.15055 238.28125 378.09375 C 238.39474 378.12572 238.47446 378.1855 238.53125 378.28125 C 238.58798 378.37707 238.62497 378.50797 238.625 378.625 C 237.75109 379.43624 236.37425 381.09396 234.5 383.59375 C 232.62569 386.0936 230.89585 388.46305 229.3125 390.75 L 219.96875 404.28125 C 219.7028 404.66001 219.10903 405.49644 218.21875 406.78125 C 217.32844 408.06608 216.47716 409.34649 215.65625 410.625 C 214.83532 411.90352 214.40155 412.70267 214.34375 413.0625 C 214.3461 413.33685 214.47801 413.52094 214.75 413.625 C 215.02197 413.72906 215.42428 413.8277 215.9375 413.875 C 216.68483 413.9294 217.75902 413.95693 219.1875 413.96875 C 220.61596 413.98058 222.31641 413.97112 224.3125 413.96875 C 226.20449 413.98885 228.14782 413.93853 230.125 413.78125 C 232.10213 413.62398 233.65834 413.23213 234.8125 412.65625 C 235.63786 412.1797 236.39317 411.50023 237.0625 410.5625 C 237.73177 409.62478 238.32764 408.5668 238.8125 407.4375 C 239.08444 407.34764 239.3388 407.35423 239.625 407.40625 C 239.91113 407.45829 240.11702 407.59307 240.21875 407.84375 C 239.94555 409.2332 239.57263 410.7173 239.09375 412.3125 C 238.6148 413.90771 238.12804 415.11279 237.65625 415.90625 C 236.10831 415.84949 234.49518 415.80963 232.8125 415.78125 C 231.12976 415.75287 229.31733 415.75 227.34375 415.75 L 212.75 415.75 C 211.25057 415.75355 209.98283 415.77348 208.9375 415.8125 C 207.89216 415.85152 207.02301 415.87432 206.375 415.90625 C 206.26384 415.84594 206.19645 415.74916 206.15625 415.625 C 206.11604 415.50084 206.09138 415.3642 206.09375 415.21875 C 206.76305 414.56009 207.7489 413.46598 209 411.90625 C 210.25109 410.34653 211.32814 408.86817 212.28125 407.5 L 224.5625 390.09375 C 226.02642 388.02675 227.18033 386.36903 228.0625 385.125 C 228.94463 383.88103 229.62022 382.84958 230.0625 382.03125 C 230.26468 381.69427 230.40706 381.40106 230.53125 381.15625 C 230.65539 380.91151 230.74643 380.69515 230.75 380.5 C 230.75707 380.35695 230.6005 380.23551 230.28125 380.15625 C 229.96195 380.07706 229.41827 380.03247 228.6875 380.03125 L 220.25 380.03125 C 217.99612 380.01709 216.17237 380.13667 214.8125 380.40625 C 213.45261 380.6759 212.44581 381.18259 211.78125 381.90625 C 211.18408 382.57795 210.66978 383.26874 210.25 383.96875 C 209.8302 384.66883 209.50947 385.2799 209.28125 385.78125 C 209.01282 385.89244 208.74427 385.88585 208.46875 385.8125 C 208.19322 385.73921 208.00153 385.60444 207.875 385.375 C 208.22738 384.34625 208.60791 383.05672 209.03125 381.53125 C 209.45458 380.00585 209.83511 378.44017 210.1875 376.84375 C 210.30929 376.75865 210.47059 376.71879 210.65625 376.71875 z M 261.21875 377.375 C 261.39611 377.37149 261.55554 377.39429 261.71875 377.46875 C 261.88192 377.54329 261.99863 377.67992 262.0625 377.875 C 262.43615 379.1285 262.8508 380.4057 263.28125 381.6875 C 263.71166 382.96937 264.13204 384.21532 264.5625 385.46875 L 272.34375 408.3125 C 273.11235 410.68107 273.8278 412.24488 274.46875 413.03125 C 275.10964 413.81762 275.99026 414.24273 277.15625 414.3125 L 278.6875 414.5 C 278.87903 414.6691 278.98999 414.90066 278.96875 415.21875 C 278.94744 415.53685 278.83641 415.76553 278.6875 415.90625 C 277.54279 415.84949 276.43163 415.80963 275.34375 415.78125 C 274.25581 415.75287 273.10191 415.75 271.84375 415.75 C 270.48265 415.75355 269.24059 415.77348 268.15625 415.8125 C 267.07185 415.85152 266.13435 415.87432 265.3125 415.90625 C 265.08425 415.76553 264.95995 415.53685 264.9375 415.21875 C 264.91501 414.90066 264.99 414.6691 265.1875 414.5 L 266.84375 414.3125 C 267.44799 414.25574 267.92529 414.13903 268.28125 413.96875 C 268.63716 413.79847 268.8042 413.56505 268.8125 413.28125 C 268.81011 412.96789 268.75505 412.56743 268.625 412.0625 C 268.4949 411.55757 268.32313 410.96356 268.09375 410.28125 L 265.59375 402.5625 C 265.42936 401.95707 265.19121 401.55476 264.90625 401.375 C 264.62124 401.19527 264.06709 401.13734 263.25 401.15625 L 254.6875 401.15625 C 254.00163 401.13853 253.50727 401.20119 253.21875 401.375 C 252.93021 401.54884 252.70625 401.92177 252.53125 402.5 L 250.53125 408.46875 C 250.10672 409.7435 249.79832 410.78441 249.59375 411.5625 C 249.38917 412.34059 249.31131 412.87768 249.3125 413.1875 C 249.29594 413.5257 249.40032 413.78665 249.625 413.96875 C 249.84967 414.15086 250.27292 414.2581 250.9375 414.3125 L 252.8125 414.5 C 253.01352 414.6691 253.10556 414.90066 253.09375 415.21875 C 253.08192 415.53685 252.94053 415.76553 252.6875 415.90625 C 251.96261 415.85304 251.13232 415.83024 250.1875 415.8125 C 249.24266 415.79476 248.13336 415.77483 246.8125 415.75 C 245.86175 415.75355 244.88824 415.77348 243.9375 415.8125 C 242.98676 415.85152 242.12421 415.87432 241.34375 415.90625 C 241.16874 415.76553 241.06436 415.53685 241.03125 415.21875 C 240.99814 414.90066 241.08445 414.6691 241.25 414.5 L 243.125 414.3125 C 243.81322 414.27466 244.44236 414.06303 245.03125 413.65625 C 245.62014 413.24947 246.12683 412.53402 246.53125 411.53125 C 247.03736 410.25888 247.6817 408.63527 248.5 406.625 C 249.31829 404.61475 250.31275 402.02049 251.5 398.875 L 257.3125 383.5625 C 257.71099 382.5574 257.99187 381.74703 258.15625 381.125 C 258.3206 380.50304 258.33394 379.96881 258.25 379.53125 C 258.92992 379.3137 259.54286 378.97878 260.03125 378.5625 C 260.51961 378.14629 260.90773 377.7629 261.21875 377.375 z M 304.375 377.375 C 305.96781 377.38568 307.70712 377.52232 309.5625 377.78125 C 311.41782 378.04026 313.04329 378.3392 314.4375 378.71875 C 314.76975 378.80629 315.04117 378.8926 315.28125 378.9375 C 315.52126 378.98247 315.75282 378.9948 316 378.96875 C 316.02953 379.6712 316.11397 380.77291 316.25 382.3125 C 316.38595 383.85216 316.58424 385.53167 316.8125 387.3125 C 316.64928 387.51237 316.41299 387.60256 316.09375 387.625 C 315.77444 387.6475 315.50116 387.57538 315.28125 387.40625 C 314.93829 385.37236 313.9097 383.50589 312.21875 381.8125 C 310.52773 380.11918 307.65733 379.2291 303.625 379.125 C 299.15628 379.10966 295.40052 380.51404 292.34375 383.34375 C 289.28695 386.17352 287.68902 390.51569 287.5625 396.375 C 287.68311 402.36087 289.3285 406.93173 292.5 410.09375 C 295.67147 413.25578 299.66251 414.84898 304.4375 414.875 C 308.05358 414.74611 310.78262 413.83322 312.625 412.09375 C 314.46731 410.35428 315.70465 408.58458 316.3125 406.78125 C 316.53359 406.64172 316.78035 406.58007 317.09375 406.625 C 317.40708 406.66994 317.64522 406.79898 317.78125 407 C 317.54708 408.54791 317.15422 410.08133 316.59375 411.59375 C 316.0332 413.10618 315.52364 414.16989 315.0625 414.78125 C 314.72072 414.84038 314.36586 414.8983 314.03125 415 C 313.69657 415.1017 313.37583 415.22786 313.0625 415.34375 C 312.36952 415.59681 311.16917 415.86062 309.46875 416.15625 C 307.76827 416.45188 305.97864 416.63023 304.09375 416.65625 C 301.52887 416.67162 299.04372 416.36896 296.65625 415.78125 C 294.26875 415.19354 292.05114 414.21901 289.96875 412.84375 C 287.64629 411.28521 285.71817 409.21943 284.21875 406.625 C 282.71933 404.03059 281.95828 400.87745 281.90625 397.21875 C 281.93463 394.04492 282.56664 391.17164 283.84375 388.59375 C 285.12085 386.01591 286.87721 383.88562 289.0625 382.1875 C 291.14489 380.57104 293.47634 379.36309 296.0625 378.5625 C 298.64863 377.76198 301.41279 377.37386 304.375 377.375 z M 449.34375 377.375 C 450.99924 377.39632 452.49752 377.51303 453.8125 377.71875 C 455.12742 377.92454 456.04216 378.08398 456.5625 378.21875 C 457.13835 378.3465 457.77222 378.46608 458.46875 378.59375 C 459.16521 378.7215 459.68524 378.76136 460.0625 378.71875 C 460.06601 379.66834 460.15992 380.87055 460.3125 382.28125 C 460.46501 383.69202 460.67849 385.25296 460.9375 386.96875 C 460.8204 387.19582 460.56992 387.3154 460.21875 387.34375 C 459.86751 387.37216 459.60842 387.29531 459.40625 387.125 C 458.58792 384.10727 457.16648 382.01396 455.15625 380.8125 C 453.14596 379.61111 450.66841 379.01524 447.75 379.0625 C 442.2726 379.21153 438.27296 380.89105 435.71875 384.0625 C 433.16452 387.23402 431.87786 391.00024 431.90625 395.40625 C 431.90269 400.98534 433.32886 405.61498 436.15625 409.25 C 438.98361 412.88504 443.2366 414.74492 448.9375 414.875 C 450.69823 414.86436 452.11207 414.72198 453.15625 414.40625 C 454.20038 414.09052 454.8741 413.68061 455.1875 413.1875 C 455.33528 412.99239 455.48138 412.62233 455.59375 412.09375 C 455.70606 411.56517 455.74406 410.84213 455.75 409.9375 L 455.75 407.6875 C 455.81619 405.39699 455.66621 403.91863 455.25 403.28125 C 454.83373 402.64389 453.75582 402.26151 452.0625 402.15625 L 449.5625 401.875 C 449.33898 401.7272 449.23932 401.49565 449.25 401.15625 C 449.26062 400.81688 449.36023 400.58822 449.5625 400.46875 C 450.41152 400.52552 451.56913 400.56538 453 400.59375 C 454.43081 400.62215 455.98701 400.62501 457.6875 400.625 C 458.78957 400.62501 459.82389 400.62214 460.8125 400.59375 C 461.80103 400.56539 462.78694 400.52551 463.71875 400.46875 C 463.91974 400.60593 464.01465 400.81756 464.03125 401.125 C 464.04776 401.43247 463.94626 401.68108 463.75 401.875 L 462.84375 402 C 461.69904 402.14191 461.01484 402.61162 460.75 403.40625 C 460.48508 404.20091 460.35891 405.33387 460.40625 406.78125 L 460.40625 409.9375 C 460.39912 411.07389 460.51296 411.98104 460.71875 412.65625 C 460.92447 413.33147 461.27746 413.76891 461.78125 413.96875 C 461.86753 414.06099 461.91212 414.1777 461.90625 414.3125 C 461.9003 414.44731 461.83105 414.56402 461.71875 414.65625 C 461.37224 414.6598 460.94999 414.71672 460.46875 414.8125 C 459.98743 414.90828 459.4826 415.0108 458.9375 415.15625 C 457.38956 415.5654 455.69958 415.93731 453.875 416.21875 C 452.05036 416.50019 450.35751 416.64442 448.78125 416.65625 C 445.37797 416.67044 442.1821 416.16375 439.21875 415.15625 C 436.25537 414.14875 433.68003 412.54322 431.46875 410.34375 C 429.7612 408.62912 428.47826 406.68292 427.59375 404.5 C 426.70923 402.3171 426.25473 399.97805 426.25 397.46875 C 426.2429 395.03162 426.63862 392.66031 427.46875 390.34375 C 428.29887 388.02724 429.59126 385.89796 431.34375 384 C 433.22157 381.98504 435.6346 380.3795 438.5625 379.1875 C 441.49037 377.99557 445.08196 377.40342 449.34375 377.375 z M 528.5 377.375 C 532.87088 377.4304 536.51921 378.35789 539.4375 380.1875 C 542.35572 382.01718 544.53855 384.40415 546 387.34375 C 547.46137 390.28341 548.18711 393.45847 548.1875 396.84375 C 548.05147 402.68536 546.12807 407.40332 542.4375 411.03125 C 538.74686 414.65919 534.11334 416.54746 528.5 416.65625 C 522.14518 416.49306 517.18721 414.54027 513.65625 410.84375 C 510.12527 407.14724 508.33564 402.67789 508.28125 397.40625 C 508.3924 391.60488 510.29874 386.84047 514 383.125 C 517.70124 379.40959 522.5425 377.50038 528.5 377.375 z M 321.96875 378.09375 C 323.21511 378.17538 324.45532 378.2323 325.6875 378.25 C 326.91967 378.26778 327.80975 378.28484 328.375 378.28125 C 328.83499 378.28128 329.29709 378.24716 329.75 378.21875 C 330.20289 378.19042 330.5939 378.1505 330.96875 378.09375 C 331.41126 379.12038 332.29981 380.478 333.59375 382.15625 C 334.88766 383.83457 336.21782 385.47254 337.59375 387.0625 C 338.96965 388.65252 339.999 389.83206 340.6875 390.59375 L 346.1875 396.78125 C 348.12442 398.95117 349.84666 400.86511 351.34375 402.53125 C 352.84077 404.19742 354.24988 405.71563 355.5625 407.0625 L 355.65625 407.0625 C 355.765 406.91351 355.85131 406.60612 355.875 406.1875 C 355.89861 405.7689 355.91094 405.25934 355.90625 404.65625 L 355.90625 392.53125 C 355.91217 391.57791 355.88611 390.27185 355.84375 388.65625 C 355.80132 387.04071 355.69344 385.47714 355.53125 383.96875 C 355.36899 382.46043 355.10349 381.41301 354.75 380.78125 C 354.59624 380.52823 354.25557 380.30714 353.71875 380.125 C 353.18186 379.94293 352.36862 379.76457 351.25 379.625 L 350.28125 379.53125 C 350.08374 379.33381 349.97749 379.06814 350 378.75 C 350.02245 378.43193 350.17795 378.20617 350.40625 378.09375 C 351.69279 378.15055 352.84669 378.19041 353.90625 378.21875 C 354.96575 378.24717 356.03418 378.28129 357.09375 378.28125 C 358.2845 378.28128 359.33302 378.24716 360.21875 378.21875 C 361.1044 378.19042 362.00215 378.1505 362.9375 378.09375 C 363.16213 378.25579 363.26938 378.48448 363.28125 378.78125 C 363.29303 379.0781 363.2351 379.3409 363.0625 379.53125 L 362.25 379.625 C 361.33706 379.77048 360.60641 379.94698 360.0625 380.15625 C 359.51851 380.36559 359.18071 380.6132 359.0625 380.84375 C 358.74818 381.58307 358.55624 382.68724 358.4375 384.1875 C 358.31869 385.68783 358.23027 387.21791 358.21875 388.78125 C 358.20715 390.34464 358.21135 391.60279 358.21875 392.53125 L 358.21875 406.09375 C 358.21766 406.72513 358.21346 407.7224 358.21875 409.09375 C 358.22397 410.46512 358.25704 411.81012 358.28125 413.15625 C 358.30539 414.50238 358.3505 415.47556 358.40625 416.03125 C 358.35063 416.20626 358.23866 416.3505 358.0625 416.46875 C 357.88627 416.587 357.62346 416.65152 357.3125 416.65625 C 357.02038 416.22818 356.34666 415.35904 355.28125 414.09375 C 354.21578 412.82847 352.48306 410.81775 350.0625 408.0625 L 336.875 393.09375 C 336.00466 392.08273 334.87829 390.73341 333.46875 389.0625 C 332.05919 387.39164 331.01253 386.19315 330.3125 385.4375 L 330.1875 385.4375 C 330.07633 385.78282 330.00895 386.24593 329.96875 386.875 C 329.92854 387.50412 329.90388 388.26889 329.90625 389.125 L 329.90625 401.5 C 329.90098 402.45338 329.8986 403.72819 329.9375 405.34375 C 329.97638 406.95933 330.07264 408.5229 330.21875 410.03125 C 330.36484 411.53961 330.6211 412.61828 330.9375 413.25 C 331.11841 413.561 331.45435 413.79256 331.96875 413.96875 C 332.48313 414.14495 333.09234 414.25692 333.8125 414.3125 L 335.5625 414.5 C 335.73158 414.74005 335.83495 414.97448 335.8125 415.25 C 335.79002 415.52552 335.66856 415.75134 335.46875 415.90625 C 334.20581 415.84949 333.033 415.80963 331.96875 415.78125 C 330.90448 415.75287 329.84837 415.75 328.8125 415.75 C 327.64772 415.75 326.621 415.75287 325.71875 415.78125 C 324.81649 415.80963 323.87236 415.84949 322.90625 415.90625 C 322.7064 415.74425 322.61622 415.51556 322.59375 415.21875 C 322.57128 414.92194 322.6434 414.69038 322.8125 414.5 L 324.34375 414.3125 C 325.00122 414.22973 325.53831 414.08836 325.96875 413.90625 C 326.39918 413.72415 326.69711 413.49732 326.84375 413.1875 C 327.10302 412.45032 327.27128 411.32934 327.375 409.84375 C 327.4787 408.35818 327.54708 406.84252 327.5625 405.28125 C 327.57791 403.72 327.5681 402.46424 327.5625 401.5 L 327.5625 385.09375 C 327.58496 384.30978 327.54696 383.58673 327.40625 382.9375 C 327.26553 382.28834 326.88601 381.64214 326.3125 381 C 325.90335 380.60626 325.40325 380.31018 324.78125 380.09375 C 324.15925 379.87739 323.50545 379.70663 322.8125 379.625 L 321.84375 379.53125 C 321.6711 379.33736 321.58192 379.08875 321.59375 378.78125 C 321.60557 378.47382 321.74407 378.23101 321.96875 378.09375 z M 368.9375 378.09375 C 370.32813 378.15055 371.58066 378.19041 372.6875 378.21875 C 373.79432 378.24717 374.93015 378.28129 376.09375 378.28125 C 377.20294 378.28128 378.27999 378.24716 379.375 378.21875 C 380.46999 378.19042 381.73201 378.1505 383.125 378.09375 C 383.29999 378.21322 383.40437 378.44191 383.4375 378.78125 C 383.47059 379.12067 383.38428 379.38347 383.21875 379.53125 L 381.8125 379.625 C 380.20309 379.67588 379.19444 380.18731 378.8125 381.125 C 378.43054 382.06276 378.2787 383.98903 378.34375 386.90625 L 378.34375 407.09375 C 378.2787 410.00155 378.43054 411.91261 378.8125 412.8125 C 379.19444 413.71239 380.20309 414.21435 381.8125 414.3125 L 383.21875 414.5 C 383.38428 414.64781 383.47059 414.87937 383.4375 415.21875 C 383.40438 415.55813 383.29997 415.78682 383.125 415.90625 C 381.73198 415.84949 380.46999 415.80963 379.375 415.78125 C 378.27998 415.75287 377.20294 415.75 376.09375 415.75 C 374.93015 415.75 373.79432 415.75287 372.6875 415.78125 C 371.58066 415.80963 370.32814 415.84949 368.9375 415.90625 C 368.76249 415.79391 368.65811 415.5681 368.625 415.25 C 368.59189 414.93191 368.64695 414.69748 368.8125 414.5 L 370.21875 414.3125 C 371.82814 414.21435 372.83679 413.71239 373.21875 412.8125 C 373.60069 411.91261 373.75253 410.00154 373.6875 407.09375 L 373.6875 386.90625 C 373.75253 383.98903 373.60069 382.06276 373.21875 381.125 C 372.83679 380.18731 371.82814 379.67588 370.21875 379.625 L 368.8125 379.53125 C 368.64695 379.38347 368.59189 379.12068 368.625 378.78125 C 368.65811 378.4419 368.76248 378.21327 368.9375 378.09375 z M 405.40625 378.09375 C 406.79688 378.15055 408.04941 378.19041 409.15625 378.21875 C 410.26307 378.24717 411.3989 378.28129 412.5625 378.28125 C 413.67169 378.28128 414.74874 378.24716 415.84375 378.21875 C 416.93874 378.19042 418.20076 378.1505 419.59375 378.09375 C 419.76874 378.21322 419.87312 378.44191 419.90625 378.78125 C 419.93934 379.12067 419.88428 379.38347 419.71875 379.53125 L 418.28125 379.625 C 416.67184 379.67588 415.69444 380.18731 415.3125 381.125 C 414.93054 382.06276 414.74745 383.98903 414.8125 386.90625 L 414.8125 407.09375 C 414.74745 410.00155 414.93054 411.91261 415.3125 412.8125 C 415.69444 413.71239 416.67184 414.21435 418.28125 414.3125 L 419.71875 414.5 C 419.88428 414.64781 419.93934 414.87937 419.90625 415.21875 C 419.87313 415.55813 419.76872 415.78682 419.59375 415.90625 C 418.20073 415.84949 416.93874 415.80963 415.84375 415.78125 C 414.74873 415.75287 413.67169 415.75 412.5625 415.75 C 411.3989 415.75 410.26307 415.75287 409.15625 415.78125 C 408.04941 415.80963 406.79689 415.84949 405.40625 415.90625 C 405.23124 415.79391 405.12686 415.5681 405.09375 415.25 C 405.06064 414.93191 405.1157 414.69748 405.28125 414.5 L 406.71875 414.3125 C 408.32814 414.21435 409.30554 413.71239 409.6875 412.8125 C 410.06944 411.91261 410.22128 410.00154 410.15625 407.09375 L 410.15625 386.90625 C 410.22128 383.98903 410.06944 382.06276 409.6875 381.125 C 409.30554 380.18731 408.32814 379.67588 406.71875 379.625 L 405.28125 379.53125 C 405.1157 379.38347 405.06064 379.12068 405.09375 378.78125 C 405.12686 378.4419 405.23123 378.21327 405.40625 378.09375 z M 483.1875 378.09375 C 484.95888 378.07605 486.66592 378.20695 488.28125 378.4375 C 489.89654 378.66813 491.37016 379.12077 492.6875 379.8125 C 494.07574 380.51613 495.19924 381.50586 496.0625 382.8125 C 496.9257 384.1192 497.38021 385.76933 497.40625 387.75 C 497.28797 390.43314 496.44348 392.55296 494.90625 394.09375 C 493.36896 395.63458 491.81849 396.66417 490.28125 397.21875 C 490.15115 397.39614 490.13595 397.62669 490.21875 397.875 C 490.3015 398.12334 490.44 398.35963 490.59375 398.59375 C 492.81448 402.22407 494.77874 405.26337 496.53125 407.6875 C 498.2837 410.11165 500.11978 412.10058 502 413.6875 C 502.48952 414.11912 503.04468 414.46738 503.71875 414.75 C 504.39274 415.03262 505.13285 415.21858 505.90625 415.28125 C 506.05048 415.34984 506.13966 415.45708 506.15625 415.625 C 506.17277 415.79292 506.10825 415.93715 505.96875 416.0625 C 505.70856 416.14882 505.3679 416.2304 504.9375 416.28125 C 504.50703 416.3321 504.01267 416.37382 503.46875 416.375 C 501.12025 416.43531 499.04789 415.94854 497.28125 414.9375 C 495.51455 413.92646 493.66986 412.02485 491.71875 409.21875 C 490.95128 408.10247 490.047 406.72089 489.03125 405.09375 C 488.01545 403.46663 487.06558 401.96834 486.15625 400.625 C 485.75773 400.00302 485.2463 399.54564 484.65625 399.25 C 484.06616 398.95439 483.233 398.81015 482.125 398.8125 C 480.89636 398.79005 480.14291 398.8593 479.84375 399 C 479.54456 399.14074 479.42026 399.489 479.46875 400.0625 L 479.46875 407.21875 C 479.40488 410.09343 479.56145 411.97697 479.9375 412.84375 C 480.31353 413.71053 481.29279 414.1907 482.875 414.3125 L 484.0625 414.5 C 484.22803 414.67265 484.28309 414.92126 484.25 415.25 C 484.21688 415.57874 484.11247 415.79036 483.9375 415.90625 C 482.68047 415.84949 481.53418 415.80963 480.46875 415.78125 C 479.40329 415.75287 478.3026 415.75 477.1875 415.75 C 476.01562 415.75 474.8722 415.75287 473.75 415.78125 C 472.62779 415.80963 471.40752 415.84949 470.09375 415.90625 C 469.91874 415.79746 469.81436 415.5887 469.78125 415.28125 C 469.74814 414.9738 469.8032 414.72231 469.96875 414.5 L 471.40625 414.3125 C 472.98844 414.21554 473.96771 413.72117 474.34375 412.84375 C 474.71978 411.96633 474.87635 410.09698 474.8125 407.21875 L 474.8125 386.84375 C 474.85388 384.22571 474.72957 382.46648 474.4375 381.59375 C 474.14541 380.72109 473.43469 380.28264 472.3125 380.21875 L 470.5 379.96875 C 470.30015 379.79969 470.18158 379.56813 470.1875 379.25 C 470.19341 378.93194 470.30539 378.70326 470.53125 378.5625 C 472.10162 378.41945 473.91591 378.29802 475.96875 378.21875 C 478.02158 378.13956 480.42514 378.09497 483.1875 378.09375 z M 527.53125 379.125 C 525.50537 379.09806 523.44288 379.59459 521.375 380.625 C 519.30708 381.65548 517.56824 383.36966 516.15625 385.78125 C 514.74424 388.1929 514.0269 391.47724 513.96875 395.59375 C 513.95017 398.47664 514.43648 401.37078 515.4375 404.3125 C 516.43851 407.25424 518.06905 409.74167 520.3125 411.75 C 522.55592 413.75834 525.51003 414.79231 529.21875 414.875 C 532.75206 414.8951 535.84068 413.59224 538.4375 410.9375 C 541.03426 408.28277 542.37225 404.16456 542.5 398.59375 C 542.51573 395.40502 542.03083 392.32622 541.03125 389.375 C 540.0316 386.42384 538.42291 384.00437 536.21875 382.09375 C 534.01452 380.1832 531.12921 379.19196 527.53125 379.125 z M 482 379.875 C 480.96944 379.90517 480.28092 380.0137 479.96875 380.1875 C 479.5525 380.41931 479.40252 380.91654 479.46875 381.6875 L 479.46875 394.96875 C 479.46519 395.47961 479.451 395.87534 479.46875 396.1875 C 479.48648 396.4997 479.54339 396.73025 479.625 396.84375 C 479.68175 396.93009 479.99488 396.98042 480.5625 397.03125 C 481.13009 397.08212 482.11222 397.12384 483.53125 397.125 C 484.56593 397.14157 485.61157 397.04006 486.625 396.84375 C 487.63839 396.64747 488.53894 396.26408 489.375 395.65625 C 490.16371 395.08275 490.83457 394.23067 491.375 393.125 C 491.91538 392.01938 492.19626 390.50116 492.21875 388.59375 C 492.2341 386.26778 491.52997 384.27126 490.0625 382.5625 C 488.59499 380.85381 486.29106 379.95899 483.15625 379.875 C 482.73291 379.8691 482.34352 379.86494 482 379.875 z M 259.28125 384.28125 C 259.189 384.43856 259.02956 384.83327 258.78125 385.4375 C 258.53291 386.04179 258.25676 386.75825 257.9375 387.625 L 254.34375 397.53125 C 254.09541 398.15918 254.05268 398.53497 254.1875 398.6875 C 254.3223 398.84006 254.75788 398.89985 255.53125 398.875 L 262.53125 398.875 C 263.33533 398.89748 263.81737 398.78838 263.96875 398.5625 C 264.12009 398.33666 264.05557 397.86882 263.78125 397.125 L 260.71875 387.875 C 260.48696 387.17262 260.23175 386.47237 260 385.8125 C 259.76821 385.15269 259.58124 384.64313 259.40625 384.28125 L 259.28125 384.28125 z "
       id="rect2985" />
    <rect
       style="fill:none;fill-opacity:1;fill-rule:nonzero;stroke:#ffffff;stroke-opacity:1;stroke-width:4;stroke-miterlimit:4;stroke-dasharray:none"
       id="rect2985-1"
       width="636.67657"
       height="185.02098"
       x="58.804596"
       y="299.85168"
       ry="36.19976" />
  </g>
</svg>
