<?xml version="1.0" encoding="UTF-8" standalone="no"?>
<!-- Created with Inkscape (http://www.inkscape.org/) -->

<svg
   xmlns:dc="http://purl.org/dc/elements/1.1/"
   xmlns:cc="http://creativecommons.org/ns#"
   xmlns:rdf="http://www.w3.org/1999/02/22-rdf-syntax-ns#"
   xmlns:svg="http://www.w3.org/2000/svg"
   xmlns="http://www.w3.org/2000/svg"
   xmlns:sodipodi="http://sodipodi.sourceforge.net/DTD/sodipodi-0.dtd"
   xmlns:inkscape="http://www.inkscape.org/namespaces/inkscape"
   width="744.09448819"
   height="1052.3622047"
   id="svg2"
   version="1.1"
   inkscape:version="0.48.5 r10040"
   sodipodi:docname="GUMB_zacni.svg">
  <defs
     id="defs4" />
  <sodipodi:namedview
     id="base"
     pagecolor="#ffffff"
     bordercolor="#666666"
     borderopacity="1.0"
     inkscape:pageopacity="0.0"
     inkscape:pageshadow="2"
     inkscape:zoom="0.49497475"
     inkscape:cx="552.2385"
     inkscape:cy="689.94765"
     inkscape:document-units="px"
     inkscape:current-layer="layer1"
     showgrid="false"
     inkscape:window-width="1366"
     inkscape:window-height="706"
     inkscape:window-x="-8"
     inkscape:window-y="-8"
     inkscape:window-maximized="1" />
  <metadata
     id="metadata7">
    <rdf:RDF>
      <cc:Work
         rdf:about="">
        <dc:format>image/svg+xml</dc:format>
        <dc:type
           rdf:resource="http://purl.org/dc/dcmitype/StillImage" />
        <dc:title></dc:title>
      </cc:Work>
    </rdf:RDF>
  </metadata>
  <g
     inkscape:label="Layer 1"
     inkscape:groupmode="layer"
     id="layer1">
    <path
       style="fill:#483737;fill-opacity:1;fill-rule:nonzero;stroke:none"
       d="M 65.875 293.25 C 41.719225 293.25 22.28125 312.68798 22.28125 336.84375 L 22.28125 472.5 C 22.28125 496.65577 41.719225 516.09375 65.875 516.09375 L 652.96875 516.09375 C 677.12452 516.09375 696.5625 496.65577 696.5625 472.5 L 696.5625 336.84375 C 696.5625 312.68798 677.12452 293.25 652.96875 293.25 L 65.875 293.25 z M 283.375 384.8125 C 283.56065 384.81254 283.72482 384.8524 283.875 384.9375 C 283.89628 385.59265 284.28626 385.99783 285.03125 386.15625 C 285.77622 386.31474 287.26505 386.3698 289.5 386.34375 L 304.5 386.34375 C 306.52088 386.34379 308.04196 386.34092 309.0625 386.3125 C 310.08297 386.28416 310.7415 386.2443 311.03125 386.1875 C 311.14474 386.21947 311.22446 386.27925 311.28125 386.375 C 311.33798 386.47082 311.34372 386.57047 311.34375 386.6875 C 310.46984 387.49874 309.12425 389.15646 307.25 391.65625 C 305.37569 394.1561 303.64585 396.5568 302.0625 398.84375 L 292.6875 412.34375 C 292.42155 412.72251 291.82778 413.55894 290.9375 414.84375 C 290.04719 416.12858 289.19591 417.40899 288.375 418.6875 C 287.55407 419.96602 287.1203 420.79642 287.0625 421.15625 C 287.06485 421.4306 287.19676 421.61469 287.46875 421.71875 C 287.74072 421.82281 288.14303 421.8902 288.65625 421.9375 C 289.40358 421.9919 290.47777 422.01943 291.90625 422.03125 C 293.33471 422.04308 295.06641 422.06487 297.0625 422.0625 C 298.95449 422.0826 300.86657 422.00103 302.84375 421.84375 C 304.82088 421.68648 306.40834 421.32588 307.5625 420.75 C 308.38786 420.27345 309.14317 419.56273 309.8125 418.625 C 310.48177 417.68728 311.04639 416.66055 311.53125 415.53125 C 311.80319 415.44139 312.0888 415.41673 312.375 415.46875 C 312.66113 415.52079 312.83577 415.68682 312.9375 415.9375 C 312.6643 417.32695 312.29138 418.81105 311.8125 420.40625 C 311.33355 422.00146 310.87804 423.20654 310.40625 424 C 308.85831 423.94324 307.24518 423.90338 305.5625 423.875 C 303.87976 423.84662 302.03608 423.8125 300.0625 423.8125 L 285.46875 423.8125 C 283.96932 423.81605 282.70158 423.83598 281.65625 423.875 C 280.61091 423.91402 279.77301 423.96807 279.125 424 C 279.01384 423.93969 278.94645 423.84291 278.90625 423.71875 C 278.86604 423.59459 278.84138 423.45795 278.84375 423.3125 C 279.51305 422.65384 280.46765 421.52848 281.71875 419.96875 C 282.96984 418.40903 284.07814 416.96192 285.03125 415.59375 L 297.28125 398.15625 C 298.74517 396.08925 299.93033 394.43153 300.8125 393.1875 C 301.69463 391.94353 302.33897 390.91208 302.78125 390.09375 C 302.98343 389.75677 303.15706 389.46356 303.28125 389.21875 C 303.40539 388.97401 303.46518 388.75765 303.46875 388.5625 C 303.47582 388.41945 303.31925 388.32926 303 388.25 C 302.6807 388.17081 302.16827 388.12622 301.4375 388.125 L 292.96875 388.125 C 290.71487 388.11084 288.92237 388.23042 287.5625 388.5 C 286.20261 388.76965 285.16456 389.27634 284.5 390 C 283.90283 390.6717 283.41978 391.33124 283 392.03125 C 282.5802 392.73133 282.22822 393.3424 282 393.84375 C 281.73157 393.95494 281.46302 393.9796 281.1875 393.90625 C 280.91197 393.83296 280.72028 393.66694 280.59375 393.4375 C 280.94613 392.40875 281.32666 391.15047 281.75 389.625 C 282.17333 388.0996 282.55386 386.53392 282.90625 384.9375 C 283.02804 384.8524 283.18934 384.81254 283.375 384.8125 z M 333.9375 385.4375 C 334.11486 385.43399 334.30554 385.48804 334.46875 385.5625 C 334.63192 385.63704 334.74863 385.77367 334.8125 385.96875 C 335.18615 387.22225 335.56955 388.4682 336 389.75 C 336.43041 391.03187 336.88204 392.30907 337.3125 393.5625 L 345.0625 416.375 C 345.8311 418.74357 346.54655 420.33863 347.1875 421.125 C 347.82839 421.91137 348.74026 422.33648 349.90625 422.40625 L 351.4375 422.5625 C 351.62903 422.7316 351.70874 422.99441 351.6875 423.3125 C 351.66619 423.6306 351.58641 423.85928 351.4375 424 C 350.29279 423.94324 349.18163 423.90338 348.09375 423.875 C 347.00581 423.84662 345.82066 423.8125 344.5625 423.8125 C 343.2014 423.81605 341.99059 423.83598 340.90625 423.875 C 339.82185 423.91402 338.8531 423.96807 338.03125 424 C 337.803 423.85928 337.6787 423.6306 337.65625 423.3125 C 337.63376 422.99441 337.70875 422.7316 337.90625 422.5625 L 339.5625 422.40625 C 340.16674 422.34949 340.64404 422.23278 341 422.0625 C 341.35591 421.89222 341.5542 421.6588 341.5625 421.375 C 341.56011 421.06164 341.4738 420.66118 341.34375 420.15625 C 341.21365 419.65132 341.04188 419.05731 340.8125 418.375 L 338.3125 410.65625 C 338.14811 410.05082 337.94121 409.64851 337.65625 409.46875 C 337.37124 409.28902 336.81709 409.19984 336 409.21875 L 327.40625 409.21875 C 326.72038 409.20103 326.25727 409.29494 325.96875 409.46875 C 325.68021 409.64259 325.425 410.01552 325.25 410.59375 L 323.28125 416.5625 C 322.85672 417.83725 322.54832 418.84691 322.34375 419.625 C 322.13917 420.40309 322.03006 420.94018 322.03125 421.25 C 322.01469 421.5882 322.11907 421.84915 322.34375 422.03125 C 322.56842 422.21336 323.02292 422.35185 323.6875 422.40625 L 325.5625 422.5625 C 325.76352 422.7316 325.85556 422.99441 325.84375 423.3125 C 325.83192 423.6306 325.69053 423.85928 325.4375 424 C 324.71261 423.94679 323.88232 423.89274 322.9375 423.875 C 321.99266 423.85726 320.85211 423.83733 319.53125 423.8125 C 318.5805 423.81605 317.63824 423.83598 316.6875 423.875 C 315.73676 423.91402 314.87421 423.96807 314.09375 424 C 313.91874 423.85928 313.81436 423.6306 313.78125 423.3125 C 313.74814 422.99441 313.8032 422.7316 313.96875 422.5625 L 315.84375 422.40625 C 316.53197 422.36841 317.16111 422.12553 317.75 421.71875 C 318.33889 421.31197 318.84558 420.62777 319.25 419.625 C 319.75611 418.35263 320.40045 416.69777 321.21875 414.6875 C 322.03704 412.67725 323.06275 410.11424 324.25 406.96875 L 330.03125 391.625 C 330.42974 390.6199 330.71062 389.80953 330.875 389.1875 C 331.03935 388.56554 331.08394 388.03131 331 387.59375 C 331.67992 387.3762 332.26161 387.07253 332.75 386.65625 C 333.23836 386.24004 333.62648 385.8254 333.9375 385.4375 z M 362.71875 386.1875 C 363.76172 386.17449 364.86056 386.18456 366.03125 386.1875 C 368.3797 386.17926 370.45493 386.33397 372.25 386.6875 C 374.04503 387.04111 375.6107 387.65404 376.9375 388.46875 C 378.26898 389.29891 379.35262 390.43474 380.1875 391.875 C 381.02232 393.31533 381.44271 395.00345 381.46875 396.96875 C 381.38476 399.55492 380.76035 401.57037 379.5625 403 C 378.36459 404.42967 377.11678 405.42887 375.8125 406 C 374.53891 406.59245 373.19247 407.00811 371.8125 407.28125 C 370.43249 407.55443 369.15715 407.69106 367.96875 407.6875 C 367.77125 407.57281 367.66215 407.37166 367.65625 407.09375 C 367.65032 406.81588 367.73477 406.64884 367.90625 406.5625 C 370.93582 405.97718 373.09077 404.86127 374.375 403.21875 C 375.65918 401.57627 376.28545 399.51809 376.25 397.03125 C 376.23815 394.24411 375.46477 392.02277 373.90625 390.40625 C 372.34768 388.78979 370.08835 387.97183 367.125 387.9375 C 365.68114 387.90916 364.79866 388.02586 364.46875 388.28125 C 364.13882 388.53671 364.00218 389.12025 364.0625 390 L 364.0625 415.3125 C 363.99154 418.19073 364.15097 420.06008 364.5625 420.9375 C 364.974 421.81492 366.0671 422.30928 367.8125 422.40625 L 369.34375 422.5625 C 369.50928 422.73515 369.56434 422.98376 369.53125 423.3125 C 369.49813 423.64124 369.39372 423.88411 369.21875 424 C 367.63772 423.94324 366.27608 423.90338 365.15625 423.875 C 364.0364 423.84662 362.94229 423.8125 361.84375 423.8125 C 360.66832 423.8125 359.51071 423.84662 358.40625 423.875 C 357.30178 423.90338 356.13843 423.94324 354.90625 424 C 354.73124 423.88766 354.62686 423.66185 354.59375 423.34375 C 354.56064 423.02566 354.64695 422.75998 354.8125 422.5625 L 356 422.40625 C 357.58219 422.28445 358.56146 421.77303 358.9375 420.90625 C 359.31353 420.03947 359.4701 418.18719 359.40625 415.3125 L 359.40625 394.34375 C 359.45472 391.99768 359.33042 390.4386 359.03125 389.625 C 358.73207 388.81147 357.94737 388.35696 356.71875 388.28125 L 354.6875 388.0625 C 354.49002 387.8686 354.41503 387.61999 354.4375 387.3125 C 354.45997 387.00508 354.58427 386.76221 354.8125 386.625 C 356.30246 386.43229 357.95072 386.30798 359.78125 386.25 C 360.69651 386.22105 361.67578 386.20051 362.71875 386.1875 z M 400.5 386.1875 C 402.27138 386.1698 403.97842 386.26945 405.59375 386.5 C 407.20904 386.73063 408.65141 387.18327 409.96875 387.875 C 411.35699 388.57863 412.51174 389.59961 413.375 390.90625 C 414.2382 392.21295 414.66146 393.86308 414.6875 395.84375 C 414.56922 398.52689 413.75598 400.61546 412.21875 402.15625 C 410.68146 403.69708 409.13099 404.75792 407.59375 405.3125 C 407.46365 405.48989 407.44845 405.68919 407.53125 405.9375 C 407.614 406.18584 407.72125 406.45338 407.875 406.6875 C 410.09573 410.31782 412.09124 413.32587 413.84375 415.75 C 415.5962 418.17415 417.40103 420.19433 419.28125 421.78125 C 419.77077 422.21287 420.35718 422.56113 421.03125 422.84375 C 421.70524 423.12637 422.44535 423.31233 423.21875 423.375 C 423.36298 423.44359 423.42091 423.55083 423.4375 423.71875 C 423.45402 423.88667 423.3895 424.0309 423.25 424.15625 C 422.98981 424.24257 422.64915 424.32415 422.21875 424.375 C 421.78828 424.42585 421.32517 424.43632 420.78125 424.4375 C 418.43275 424.49781 416.36039 424.01104 414.59375 423 C 412.82705 421.98896 410.98236 420.08735 409.03125 417.28125 C 408.26378 416.16497 407.3595 414.81464 406.34375 413.1875 C 405.32795 411.56038 404.37808 410.06209 403.46875 408.71875 C 403.07023 408.09677 402.5588 407.63939 401.96875 407.34375 C 401.37866 407.04814 400.5455 406.9039 399.4375 406.90625 C 398.20886 406.8838 397.42416 406.95305 397.125 407.09375 C 396.82581 407.23449 396.70151 407.58275 396.75 408.15625 L 396.75 415.3125 C 396.68613 418.18718 396.8427 420.03947 397.21875 420.90625 C 397.59478 421.77303 398.57404 422.28445 400.15625 422.40625 L 401.34375 422.5625 C 401.50928 422.73515 401.59559 422.98376 401.5625 423.3125 C 401.52938 423.64124 401.42497 423.88411 401.25 424 C 399.99297 423.94324 398.81543 423.90338 397.75 423.875 C 396.68454 423.84662 395.6151 423.8125 394.5 423.8125 C 393.32812 423.8125 392.15345 423.84662 391.03125 423.875 C 389.90904 423.90338 388.72002 423.94324 387.40625 424 C 387.23124 423.89121 387.12686 423.68245 387.09375 423.375 C 387.06064 423.06755 387.1157 422.78481 387.28125 422.5625 L 388.6875 422.40625 C 390.26969 422.30929 391.24896 421.81492 391.625 420.9375 C 392.00103 420.06008 392.1576 418.19073 392.09375 415.3125 L 392.09375 394.9375 C 392.13513 392.31946 392.01082 390.56023 391.71875 389.6875 C 391.42666 388.81484 390.71594 388.34514 389.59375 388.28125 L 387.78125 388.0625 C 387.5814 387.89344 387.49408 387.63063 387.5 387.3125 C 387.50591 386.99444 387.61789 386.76576 387.84375 386.625 C 389.41412 386.48195 391.22841 386.39177 393.28125 386.3125 C 395.33408 386.23331 397.73764 386.18872 400.5 386.1875 z M 425.46875 386.1875 C 426.85938 386.2443 428.11191 386.28416 429.21875 386.3125 C 430.32557 386.34092 431.4614 386.34379 432.625 386.34375 C 433.73419 386.34378 434.84249 386.34091 435.9375 386.3125 C 437.03249 386.28417 438.26326 386.24425 439.65625 386.1875 C 439.83124 386.30697 439.93562 386.53566 439.96875 386.875 C 440.00184 387.21442 439.94678 387.44597 439.78125 387.59375 L 438.34375 387.71875 C 436.73434 387.76963 435.75694 388.24981 435.375 389.1875 C 434.99304 390.12526 434.8412 392.05153 434.90625 394.96875 L 434.90625 415.1875 C 434.8412 418.0953 434.99304 420.00636 435.375 420.90625 C 435.75694 421.80614 436.73434 422.3081 438.34375 422.40625 L 439.78125 422.5625 C 439.94678 422.71031 440.00184 422.97312 439.96875 423.3125 C 439.93563 423.65188 439.83122 423.88057 439.65625 424 C 438.26323 423.94324 437.03249 423.90338 435.9375 423.875 C 434.84248 423.84662 433.73419 423.8125 432.625 423.8125 C 431.4614 423.8125 430.32557 423.84662 429.21875 423.875 C 428.11191 423.90338 426.85939 423.94324 425.46875 424 C 425.29374 423.88766 425.18936 423.66185 425.15625 423.34375 C 425.12314 423.02566 425.1782 422.75998 425.34375 422.5625 L 426.78125 422.40625 C 428.39064 422.3081 429.36804 421.80614 429.75 420.90625 C 430.13194 420.00636 430.31503 418.09529 430.25 415.1875 L 430.25 394.96875 C 430.31503 392.05153 430.13194 390.12526 429.75 389.1875 C 429.36804 388.24981 428.39064 387.76963 426.78125 387.71875 L 425.34375 387.59375 C 425.1782 387.44597 425.12314 387.21443 425.15625 386.875 C 425.18936 386.53565 425.29373 386.30702 425.46875 386.1875 z M 399.3125 387.9375 C 398.28194 387.96767 397.59342 388.0762 397.28125 388.25 C 396.865 388.48181 396.68377 388.97904 396.75 389.75 L 396.75 403.03125 C 396.74644 403.54211 396.7635 403.96909 396.78125 404.28125 C 396.79898 404.59345 396.85589 404.79275 396.9375 404.90625 C 396.99425 404.99259 397.30738 405.07417 397.875 405.125 C 398.44259 405.17587 399.42472 405.18634 400.84375 405.1875 C 401.87843 405.20407 402.89282 405.13381 403.90625 404.9375 C 404.91964 404.74122 405.85144 404.32658 406.6875 403.71875 C 407.47621 403.14525 408.14707 402.32442 408.6875 401.21875 C 409.22788 400.11313 409.50876 398.59491 409.53125 396.6875 C 409.5466 394.36153 408.81122 392.33376 407.34375 390.625 C 405.87624 388.91631 403.57231 388.02149 400.4375 387.9375 C 400.01416 387.9316 399.65602 387.92744 399.3125 387.9375 z M 332.03125 392.375 C 331.939 392.53231 331.74831 392.89577 331.5 393.5 C 331.25166 394.10429 330.97551 394.852 330.65625 395.71875 L 327.09375 405.59375 C 326.84541 406.22168 326.77143 406.62872 326.90625 406.78125 C 327.04105 406.93381 327.50788 406.9936 328.28125 406.96875 L 335.25 406.96875 C 336.05408 406.99123 336.53612 406.88213 336.6875 406.65625 C 336.83884 406.43041 336.77432 405.93132 336.5 405.1875 L 333.4375 395.9375 C 333.20571 395.23512 332.98175 394.56612 332.75 393.90625 C 332.51821 393.24644 332.29999 392.73688 332.125 392.375 L 332.03125 392.375 z "
       id="rect2985" />
    <rect
       style="fill:none;stroke:#ffffff;stroke-width:4;stroke-miterlimit:4;stroke-opacity:1;stroke-dasharray:none"
       id="rect2985-1"
       width="636.67657"
       height="185.02098"
       x="41.08947"
       y="312.15976"
       ry="36.19976" />
  </g>
</svg>
